<svg width="160" height="130" viewBox="0 0 160 130" fill="none" xmlns="http://www.w3.org/2000/svg">
<rect width="160" height="130" fill="#F5F5F5"/>
<g clip-path="url(#clip0_0_1)">
<rect width="390" height="844" transform="translate(-115 -155)" fill="white"/>
<g clip-path="url(#clip1_0_1)">
<path d="M79.9999 10.8333C43.1999 10.8333 13.3333 35.1 13.3333 65C13.3333 94.9 43.1999 119.167 79.9999 119.167C116.8 119.167 146.667 94.9 146.667 65C146.667 35.1 116.8 10.8333 79.9999 10.8333ZM79.9999 27.0833C91.0666 27.0833 99.9999 34.3416 99.9999 43.3333C99.9999 52.325 91.0666 59.5833 79.9999 59.5833C68.9333 59.5833 59.9999 52.325 59.9999 43.3333C59.9999 34.3416 68.9333 27.0833 79.9999 27.0833ZM79.9999 104C63.3333 104 48.5999 97.0666 39.9999 86.5583C40.1999 75.7791 66.6666 69.875 79.9999 69.875C93.2666 69.875 119.8 75.7791 120 86.5583C111.4 97.0666 96.6666 104 79.9999 104Z" fill="black"/>
</g>
</g>
<defs>
<clipPath id="clip0_0_1">
<rect width="390" height="844" fill="white" transform="translate(-115 -155)"/>
</clipPath>
<clipPath id="clip1_0_1">
<rect width="160" height="130" fill="white"/>
</clipPath>
</defs>
</svg>
