<svg width="271" height="220" viewBox="0 0 271 232" fill="none" xmlns="http://www.w3.org/2000/svg">
<rect width="271" height="220" fill="#F5F5F5"/>
<g clip-path="url(#clip0_0_1)">
<rect width="390" height="844" transform="translate(-69 -167)" fill="white"/>
<g clip-path="url(#clip1_0_1)">
<rect width="271" height="232" fill="white"/>
<path d="M114.91 222.893C115.901 222.96 116.45 221.635 115.699 220.862L115.624 220.543C115.634 220.517 115.644 220.492 115.654 220.466C116.657 217.894 120.057 217.911 121.051 220.488C121.934 222.774 123.058 225.065 123.334 227.483C123.458 228.55 123.403 229.637 123.182 230.685C125.251 225.825 126.339 220.519 126.339 215.182C126.339 213.841 126.271 212.5 126.131 211.163C126.017 210.069 125.858 208.982 125.654 207.904C124.547 202.081 122.15 196.534 118.692 191.901C117.03 190.924 115.644 189.396 114.807 187.565C114.506 186.905 114.27 186.194 114.159 185.471C114.348 185.497 114.872 182.399 114.729 182.209C114.993 181.778 115.465 181.565 115.753 181.145C117.184 179.057 119.157 179.421 120.187 182.259C122.387 183.453 122.408 185.434 121.058 187.339C120.2 188.55 120.082 190.19 119.328 191.488C119.406 191.594 119.486 191.698 119.564 191.805C120.985 193.766 122.215 195.874 123.251 198.088C122.958 195.627 123.391 192.662 124.128 190.751C124.967 188.573 126.541 186.739 127.926 184.856C129.59 182.594 133.002 183.581 133.295 186.448C133.298 186.476 133.301 186.504 133.304 186.531C133.098 186.656 132.896 186.789 132.699 186.929C131.576 187.728 131.964 189.601 133.295 189.822L133.325 189.827C133.251 190.624 133.124 191.414 132.938 192.191C134.715 199.584 130.878 202.277 125.4 202.398C125.279 202.464 125.161 202.531 125.04 202.594C125.595 204.275 126.038 206 126.367 207.747C126.662 209.292 126.866 210.853 126.981 212.42C127.124 214.398 127.111 216.386 126.956 218.361L126.965 218.291C127.359 216.116 128.457 214.085 130.051 212.677C132.425 210.579 135.78 209.807 138.341 208.12C139.574 207.309 141.154 208.358 140.939 209.895L140.929 209.969C140.547 210.136 140.175 210.329 139.816 210.546C139.61 210.671 139.408 210.803 139.211 210.943C138.088 211.742 138.476 213.615 139.807 213.836L139.837 213.841C139.859 213.845 139.878 213.848 139.899 213.851C139.245 215.522 138.333 217.073 137.192 218.411C136.081 224.864 131.308 225.476 126.203 223.597H126.2C125.641 226.212 124.826 228.767 123.778 231.202H115.126C115.095 231.098 115.067 230.992 115.039 230.888C115.839 230.942 116.646 230.892 117.433 230.735C116.791 229.888 116.15 229.034 115.508 228.187C115.492 228.17 115.48 228.153 115.467 228.137C115.142 227.703 114.813 227.273 114.488 226.839L114.487 226.839C114.467 225.508 114.616 224.181 114.91 222.893Z" fill="#F2F2F2"/>
<path d="M0 231.385C0 231.726 0.254467 232 0.571346 232H194.19C194.507 232 194.762 231.726 194.762 231.385C194.762 231.045 194.507 230.771 194.19 230.771H0.571346C0.254467 230.771 0 231.045 0 231.385Z" fill="#CCCCCC"/>
<path d="M261.53 231.863H162.365C157.144 231.863 152.896 227.294 152.896 221.677V10.1858C152.896 4.56942 157.144 0 162.365 0H261.53C266.752 0 271 4.56942 271 10.1858V221.677C271 227.294 266.752 231.863 261.53 231.863ZM162.365 1.0328C157.666 1.0328 153.856 5.13061 153.856 10.1855V221.677C153.856 226.732 157.666 230.83 162.366 230.83H261.53C266.23 230.83 270.04 226.732 270.04 221.677V77.8238C270.04 35.4133 238.076 1.0328 198.647 1.0328H162.365Z" fill="#E6E6E6"/>
<path d="M181.061 104.374C187.425 104.374 192.584 98.8247 192.584 91.9799C192.584 85.1352 187.425 79.5864 181.061 79.5864C174.698 79.5864 169.539 85.1352 169.539 91.9799C169.539 98.8247 174.698 104.374 181.061 104.374Z" fill="#E6E6E6"/>
<path d="M242.834 104.374C249.198 104.374 254.356 98.8247 254.356 91.9799C254.356 85.1352 249.198 79.5864 242.834 79.5864C236.471 79.5864 231.312 85.1352 231.312 91.9799C231.312 98.8247 236.471 104.374 242.834 104.374Z" fill="#E6E6E6"/>
<path d="M211.948 104.374C218.311 104.374 223.47 98.8247 223.47 91.9799C223.47 85.1352 218.311 79.5864 211.948 79.5864C205.584 79.5864 200.425 85.1352 200.425 91.9799C200.425 98.8247 205.584 104.374 211.948 104.374Z" fill="#E6E6E6"/>
<path d="M181.061 140.005C187.425 140.005 192.584 134.456 192.584 127.611C192.584 120.767 187.425 115.218 181.061 115.218C174.698 115.218 169.539 120.767 169.539 127.611C169.539 134.456 174.698 140.005 181.061 140.005Z" fill="#E6E6E6"/>
<path d="M242.834 140.005C249.198 140.005 254.356 134.456 254.356 127.611C254.356 120.767 249.198 115.218 242.834 115.218C236.471 115.218 231.312 120.767 231.312 127.611C231.312 134.456 236.471 140.005 242.834 140.005Z" fill="#E6E6E6"/>
<path d="M211.948 140.005C218.311 140.005 223.47 134.456 223.47 127.611C223.47 120.767 218.311 115.218 211.948 115.218C205.584 115.218 200.425 120.767 200.425 127.611C200.425 134.456 205.584 140.005 211.948 140.005Z" fill="#E6E6E6"/>
<path d="M181.061 175.637C187.425 175.637 192.584 170.088 192.584 163.243C192.584 156.398 187.425 150.849 181.061 150.849C174.698 150.849 169.539 156.398 169.539 163.243C169.539 170.088 174.698 175.637 181.061 175.637Z" fill="#E6E6E6"/>
<path d="M242.599 211.207C248.962 211.207 254.121 205.658 254.121 198.813C254.121 191.969 248.962 186.42 242.599 186.42C236.235 186.42 231.076 191.969 231.076 198.813C231.076 205.658 236.235 211.207 242.599 211.207Z" fill="#E6E6E6"/>
<path d="M196.749 211.207C211.73 211.207 223.875 205.658 223.875 198.813C223.875 191.969 211.73 186.42 196.749 186.42C181.768 186.42 169.624 191.969 169.624 198.813C169.624 205.658 181.768 211.207 196.749 211.207Z" fill="#E6E6E6"/>
<path d="M242.834 175.637C249.198 175.637 254.356 170.088 254.356 163.243C254.356 156.398 249.198 150.849 242.834 150.849C236.471 150.849 231.312 156.398 231.312 163.243C231.312 170.088 236.471 175.637 242.834 175.637Z" fill="#E6E6E6"/>
<path d="M211.948 175.637C218.311 175.637 223.47 170.088 223.47 163.243C223.47 156.398 218.311 150.849 211.948 150.849C205.584 150.849 200.425 156.398 200.425 163.243C200.425 170.088 205.584 175.637 211.948 175.637Z" fill="#6C63FF"/>
<path d="M214.212 14.4592H104.013C100.746 14.4592 98.0889 17.3171 98.0889 20.8317V64.3741C98.0889 67.8887 100.746 70.7466 104.013 70.7466H214.212C217.48 70.7466 220.137 67.8887 220.137 64.3741V20.8317C220.137 17.3171 217.48 14.4592 214.212 14.4592Z" fill="white"/>
<path d="M214.212 14.4592H104.013C100.746 14.4592 98.0889 17.3171 98.0889 20.8317V64.3741C98.0889 67.8887 100.746 70.7466 104.013 70.7466H214.212C217.48 70.7466 220.137 67.8887 220.137 64.3741V20.8317C220.137 17.3171 217.48 14.4592 214.212 14.4592ZM219.514 64.3741C219.514 67.5201 217.137 70.0765 214.212 70.0765H104.013C101.089 70.0765 98.7118 67.5201 98.7118 64.3741V20.8317C98.7118 17.6856 101.089 15.1293 104.013 15.1293H214.212C217.137 15.1293 219.514 17.6856 219.514 20.8317V64.3741Z" fill="#3F3D56"/>
<path d="M32.6238 93.1693L31.6422 99.4563L40.3467 122.231L45.0169 119.649L40.4714 98.3361L39.818 90.2023L32.6238 93.1693Z" fill="#A0616A"/>
<path d="M42.2324 57.7997C42.2324 57.7997 37.675 55.4251 34.1386 63.4486C30.6022 71.472 31.0402 89.0693 31.0402 89.0693C31.0402 89.0693 29.7525 90.3882 30.5699 91.3115C31.3873 92.2349 32.1494 93.7003 31.3155 95.3894C30.8761 96.2797 29.8589 98.0214 31.5246 98.5162C33.1902 99.011 40.9815 96.6736 40.9815 96.6736C40.9815 96.6736 43.8949 95.2698 42.2395 94.3243C40.5842 93.3789 42.9156 87.66 42.9156 87.66L44.8419 71.1397L42.2324 57.7997Z" fill="#6C63FF"/>
<path d="M45.8108 130.933C47.6401 130.329 48.356 127.153 47.41 123.839C46.4639 120.525 44.2141 118.328 42.3848 118.933C40.5555 119.537 39.8396 122.713 40.7856 126.027C41.7317 129.341 43.9816 131.537 45.8108 130.933Z" fill="#A0616A"/>
<path d="M88.9516 228.543L93.3139 227.283L90.8741 208.585L84.4357 210.444L88.9516 228.543Z" fill="#A0616A"/>
<path d="M103.871 224.122C104.068 224.329 104.338 225.103 104.41 225.389C104.629 226.268 104.144 227.173 103.326 227.409L89.8164 231.308C89.2585 231.469 88.685 231.113 88.5353 230.513L88.3843 229.908C88.3843 229.908 87.2624 228.283 88.0793 225.644C88.0793 225.644 90.2272 226.906 92.0969 223.42L92.4842 221.734L99.0093 224.45L102.133 223.978C102.816 223.875 103.377 223.604 103.871 224.122Z" fill="#2F2E41"/>
<path d="M46.1909 228.435L50.7076 228.434L52.8562 209.695L46.1899 209.696L46.1909 228.435Z" fill="#A0616A"/>
<path d="M61.6657 228.324C61.8064 228.579 61.8806 229.401 61.8806 229.698C61.8806 230.608 61.1942 231.347 60.3476 231.347H46.3598C45.7822 231.347 45.314 230.843 45.314 230.222V229.595C45.314 229.595 44.622 227.713 46.0467 225.392C46.0467 225.392 47.8173 227.209 50.4631 224.363L51.2433 222.843L56.891 227.286L60.0214 227.7C60.7062 227.791 61.3134 227.686 61.6657 228.324Z" fill="#2F2E41"/>
<path d="M76.2506 116.812L88.1276 171.877L93.8613 216.369L84.8512 217.691L59.8685 141.922L54.1348 217.691L43.896 218.572C43.896 218.572 35.705 128.706 39.391 117.693L76.2506 116.812Z" fill="#2F2E41"/>
<path d="M90.3879 51.6991L94.4858 47.0933L99.1918 22.9947L93.9797 22.3062L86.5986 42.6806L82.8875 49.8021L90.3879 51.6991Z" fill="#A0616A"/>
<path d="M63.954 75.1387C63.954 75.1387 67.7892 82.7449 74.9075 78.2482C82.0259 73.7515 89.5544 56.0473 89.5544 56.0473C89.5544 56.0473 91.0576 51.5468 92.6302 50.6541C93.4589 50.1837 95.5915 49.6763 94.4727 48.2599C93.3538 46.8435 85.3077 43.7469 85.3077 43.7469C85.3077 43.7469 82.1646 43.146 83.0394 44.9289C83.9142 46.7118 81.0411 45.6074 81.3312 47.4943C81.6212 49.3812 78.9969 50.0314 78.9969 50.0314L63.954 75.1387Z" fill="#6C63FF"/>
<path d="M100.813 19.5906C101.762 16.278 101.05 13.1009 99.2212 12.4944C97.3926 11.8878 95.1403 14.0815 94.1906 17.3941C93.2409 20.7067 93.9533 23.8838 95.7819 24.4903C97.6105 25.0969 99.8628 22.9032 100.813 19.5906Z" fill="#A0616A"/>
<path d="M64.4631 48.786H53.2498L52.796 52.5888C52.796 52.5888 38.6541 56.7719 39.0076 59.0536C39.3612 61.3353 41.4825 99.3634 41.4825 99.3634L39.7147 118.377C39.7147 118.377 71.5341 132.828 76.4838 115.715L74.009 95.9408C74.009 95.9408 80.0193 62.0958 78.6051 60.5747C77.1909 59.0536 65.5238 52.9691 65.5238 52.9691L64.4631 48.786Z" fill="#6C63FF"/>
<path d="M57.9497 48.8334C63.5083 48.8334 68.0145 43.9865 68.0145 38.0076C68.0145 32.0287 63.5083 27.1818 57.9497 27.1818C52.391 27.1818 47.8849 32.0287 47.8849 38.0076C47.8849 43.9865 52.391 48.8334 57.9497 48.8334Z" fill="#A0616A"/>
<path d="M65.4036 33.5544C66.6895 33.4375 67.9755 33.3205 69.2614 33.2036C68.8194 32.9855 68.359 32.7522 68.0645 32.3359C67.77 31.9196 67.7091 31.2619 68.0649 30.9053C68.4806 30.4886 69.1691 30.7094 69.6235 31.0765C69.3733 29.6714 68.5936 28.384 67.4998 27.5701C66.1636 26.5759 62.8581 27.7614 61.2473 27.5332C59.3887 27.2698 59.1568 25.5654 57.2982 25.302C56.5977 25.2028 55.8093 25.1279 55.2584 25.6039C54.6474 26.1318 54.5789 27.13 54.0399 27.7418C53.2702 28.6155 51.9511 28.3577 50.8558 28.6035C49.3045 28.9517 48.135 30.4149 47.5949 32.0174C47.0548 33.6199 47.0349 35.3629 47.0211 37.0675C47.0057 38.9778 47.0001 41.1893 48.2847 42.5087C49.0672 43.3125 51.1989 46.0704 51.4294 47.2076C51.593 48.0153 58.2629 48.999 59.7086 48.9542L64.6358 47.2076C65.12 44.9141 64.319 40.377 63.1677 38.3775C63.5469 38.9162 65.3002 40.5377 65.5682 39.9267C65.8362 39.3157 65.7147 37.4007 66.0483 36.8283C66.4695 36.106 64.6137 33.6262 65.4036 33.5544Z" fill="#2F2E41"/>
<path d="M141.291 43.63C141.881 43.74 142.366 44.035 142.746 44.515C143.126 44.995 143.316 45.545 143.316 46.165C143.316 46.725 143.176 47.22 142.896 47.65C142.626 48.07 142.231 48.4 141.711 48.64C141.191 48.88 140.576 49 139.866 49H135.351V38.53H139.671C140.381 38.53 140.991 38.645 141.501 38.875C142.021 39.105 142.411 39.425 142.671 39.835C142.941 40.245 143.076 40.71 143.076 41.23C143.076 41.84 142.911 42.35 142.581 42.76C142.261 43.17 141.831 43.46 141.291 43.63ZM137.451 42.85H139.371C139.871 42.85 140.256 42.74 140.526 42.52C140.796 42.29 140.931 41.965 140.931 41.545C140.931 41.125 140.796 40.8 140.526 40.57C140.256 40.34 139.871 40.225 139.371 40.225H137.451V42.85ZM139.566 47.29C140.076 47.29 140.471 47.17 140.751 46.93C141.041 46.69 141.186 46.35 141.186 45.91C141.186 45.46 141.036 45.11 140.736 44.86C140.436 44.6 140.031 44.47 139.521 44.47H137.451V47.29H139.566ZM156.405 38.53V49H154.305V42.19L151.5 49H149.91L147.09 42.19V49H144.99V38.53H147.375L150.705 46.315L154.035 38.53H156.405ZM160.581 38.53V49H158.481V38.53H160.581Z" fill="black"/>
</g>
</g>
<defs>
<clipPath id="clip0_0_1">
<rect width="390" height="844" fill="white" transform="translate(-69 -167)"/>
</clipPath>
<clipPath id="clip1_0_1">
<rect width="271" height="232" fill="white"/>
</clipPath>
</defs>
</svg>
