<svg width="266" height="249" viewBox="0 0 266 249" fill="none" xmlns="http://www.w3.org/2000/svg">
<rect width="266" height="249" fill="#F5F5F5"/>
<g clip-path="url(#clip0_0_1)">
<rect width="390" height="844" transform="translate(-62 -119)" fill="white"/>
<circle cx="-62" cy="-64" r="100" fill="#968FE1" fill-opacity="0.42"/>
<g clip-path="url(#clip1_0_1)">
<path d="M95.4143 143.302C104.53 120.714 121.919 103.371 140.326 105.042C126.748 125.839 118.831 152.732 117.975 180.961C117.672 191.849 118.141 204.004 113.008 212.157C109.815 217.23 104.933 219.687 100.134 220.203C95.3342 220.718 90.5356 219.497 85.8 218.28L84.6513 218.777C84.214 192.802 86.2984 165.889 95.4143 143.302Z" fill="#F0F0F0"/>
<path d="M140.354 105.585C126.742 114.815 115.135 130.231 108.01 149.031C106.469 153.095 105.158 157.407 104.586 161.967C104.013 166.528 104.413 170.87 105.519 175.202C106.53 179.162 107.89 183.048 108.2 187.286C108.527 191.753 107.36 195.929 105.26 199.244C102.69 203.3 99.2391 205.813 95.8036 208.105C91.9891 210.651 87.9985 213.209 85.2967 217.96C84.9694 218.535 84.3545 217.786 84.6813 217.212C89.3819 208.947 97.428 207.393 103.008 200.735C105.611 197.628 107.566 193.398 107.442 188.44C107.335 184.106 105.935 180.096 104.886 176.099C103.785 171.901 103.236 167.681 103.631 163.206C104.035 158.628 105.23 154.234 106.69 150.132C109.982 140.881 114.488 132.387 119.649 125.045C125.581 116.606 132.495 109.658 140.09 104.502C140.561 104.183 140.821 105.269 140.354 105.585Z" fill="white"/>
<path d="M110.097 142.748C108.01 140.599 106.534 137.475 105.931 133.933C105.329 130.392 105.64 126.665 106.808 123.417C107.046 122.761 107.781 123.251 107.543 123.908C106.451 126.93 106.161 130.402 106.727 133.698C107.293 136.994 108.677 139.896 110.628 141.881C111.052 142.313 110.518 143.177 110.097 142.748Z" fill="white"/>
<path d="M104.819 173.289C110.048 172.213 114.797 168.4 118.119 162.611C118.447 162.037 119.062 162.786 118.734 163.359C115.269 169.374 110.322 173.328 104.878 174.431C104.36 174.535 104.303 173.393 104.819 173.289Z" fill="white"/>
<path d="M125.983 118.015C126.667 119.083 127.53 119.896 128.492 120.379C129.454 120.862 130.487 121.001 131.497 120.783C132.015 120.67 132.071 121.812 131.556 121.925C130.44 122.159 129.3 122.003 128.235 121.473C127.171 120.942 126.216 120.052 125.452 118.881C125.373 118.78 125.325 118.639 125.317 118.489C125.31 118.339 125.343 118.191 125.41 118.074C125.48 117.96 125.58 117.889 125.688 117.878C125.795 117.867 125.901 117.916 125.983 118.015Z" fill="white"/>
<path d="M176.951 176.297C176.63 176.381 176.308 176.465 175.983 176.558C171.661 177.719 167.413 179.373 163.281 181.504C162.959 181.661 162.635 181.828 162.318 181.998C152.402 187.28 143.268 195.109 135.381 205.088C132.245 209.063 129.328 213.368 126.656 217.966C122.966 224.317 119.324 231.616 114.502 235.757C114.002 236.197 113.483 236.592 112.949 236.942L85.1706 220.712C85.1206 220.631 85.0676 220.558 85.0173 220.476L83.8872 219.9C84.0133 219.649 84.1478 219.393 84.2739 219.142C84.3466 218.996 84.4254 218.854 84.4982 218.708C84.5486 218.612 84.5993 218.516 84.6409 218.425C84.6576 218.393 84.6746 218.361 84.6887 218.338C84.7303 218.248 84.7758 218.169 84.8148 218.088C85.5642 216.653 86.322 215.222 87.0883 213.797C87.0909 213.788 87.0909 213.788 87.0998 213.783C92.9583 202.945 99.5107 192.7 106.959 184.182C107.183 183.926 107.409 183.661 107.646 183.412C111.018 179.599 114.606 176.18 118.374 173.19C120.441 171.562 122.565 170.083 124.738 168.757C130.358 165.348 136.323 163.205 142.415 162.407C154.56 160.819 166.931 164.719 176.245 175.466C176.484 175.741 176.716 176.013 176.951 176.297Z" fill="#F0F0F0"/>
<path d="M176.743 176.757C161.929 172.583 146.073 175.048 132.348 184.016C129.381 185.955 126.49 188.286 124.085 191.441C121.678 194.598 120.142 198.403 119.173 202.8C118.287 206.82 117.712 211.076 116.148 214.723C114.5 218.566 111.783 220.912 108.69 221.777C104.904 222.836 101.074 221.916 97.3515 220.833C93.2179 219.63 88.9379 218.289 84.7502 219.791C84.2428 219.972 84.0721 218.853 84.5787 218.671C91.8646 216.058 98.9531 221.641 106.254 221.057C109.661 220.785 113.03 219.064 115.05 215.002C116.817 211.449 117.413 207.061 118.284 202.98C119.199 198.695 120.565 194.859 122.793 191.621C125.072 188.308 127.904 185.813 130.823 183.776C137.406 179.182 144.634 176.221 151.894 174.736C160.238 173.028 168.727 173.344 176.996 175.669C177.507 175.813 177.251 176.9 176.743 176.757Z" fill="white"/>
<path d="M136.7 180.77C135.952 177.284 136.109 173.538 137.141 170.199C138.174 166.861 140.015 164.149 142.337 162.546C142.807 162.224 143.185 163.239 142.713 163.561C140.55 165.048 138.835 167.575 137.878 170.686C136.921 173.797 136.785 177.288 137.495 180.528C137.648 181.233 136.853 181.47 136.7 180.77Z" fill="white"/>
<path d="M119.431 200.679C124.066 204.254 129.488 205.237 134.615 203.432C135.122 203.253 135.293 204.372 134.786 204.551C129.449 206.416 123.808 205.377 118.991 201.641C118.532 201.285 118.975 200.324 119.431 200.679Z" fill="white"/>
<path d="M159.956 174.494C160.046 175.928 160.387 177.307 160.949 178.509C161.51 179.711 162.275 180.698 163.175 181.381C163.637 181.729 163.193 182.689 162.734 182.343C161.743 181.582 160.899 180.491 160.276 179.165C159.653 177.839 159.271 176.318 159.161 174.736C159.142 174.588 159.164 174.435 159.221 174.309C159.279 174.182 159.369 174.092 159.473 174.055C159.578 174.024 159.688 174.052 159.778 174.135C159.869 174.217 159.933 174.346 159.956 174.494Z" fill="white"/>
<path d="M124.035 203.073C120.145 176.577 115.282 167.743 115.282 167.743L113.424 165.714L111.19 163.27L111.201 162.956L110.671 162.702L110.547 162.566L110.343 162.345L110.31 162.395L110.241 162.496L100.131 157.655L87.3055 151.519L81.3664 140.645C80.3992 138.874 79.1539 137.443 77.7282 136.463C76.3024 135.484 74.735 134.983 73.1488 134.999L54.1813 135.197C51.6167 135.224 49.1519 136.601 47.2716 139.058L34.8045 155.346L15.3785 168.415L15.3457 168.369L15.1417 168.574L12.1402 170.595L12.2641 171.504L10.4063 173.392C10.4063 173.392 5.54344 181.611 1.65312 206.265C0.66347 212.538 0.176327 225.995 0.000494126 242.577C-0.00833793 243.416 0.101308 244.249 0.323053 245.027C0.544799 245.806 0.874222 246.514 1.29217 247.112C1.71011 247.71 2.20824 248.185 2.75759 248.509C3.30694 248.833 3.89655 249 4.49214 249H108.251L121.201 249C121.796 249 122.385 248.833 122.934 248.509C123.483 248.185 123.981 247.711 124.399 247.114C124.817 246.517 125.146 245.809 125.368 245.032C125.591 244.254 125.701 243.422 125.693 242.583C125.521 224.539 125.034 209.875 124.035 203.073Z" fill="#3F3D56"/>
<path d="M137.348 23.1063C133.311 23.1063 129.44 25.3651 126.585 29.3857C123.731 33.4064 122.127 38.8597 122.127 44.5458C122.127 50.2319 123.731 55.6851 126.585 59.7058C129.44 63.7265 133.311 65.9853 137.348 65.9853H250.779C254.816 65.9853 258.687 63.7265 261.542 59.7058C264.396 55.6851 266 50.2319 266 44.5458C266 38.8597 264.396 33.4064 261.542 29.3857C258.687 25.3651 254.816 23.1063 250.779 23.1063H137.348Z" fill="#E5E5E5"/>
<path d="M137.348 27.4452C134.128 27.4452 131.04 29.2469 128.763 32.4538C126.487 35.6608 125.208 40.0104 125.208 44.5458C125.208 49.0811 126.487 53.4307 128.763 56.6377C131.04 59.8447 134.128 61.6463 137.348 61.6463H250.779C253.999 61.6463 257.087 59.8447 259.364 56.6377C261.641 53.4307 262.92 49.0811 262.92 44.5458C262.92 40.0104 261.641 35.6608 259.364 32.4538C257.087 29.2469 253.999 27.4452 250.779 27.4452H137.348Z" fill="white"/>
<path d="M66.6437 124.962C80.3676 124.962 91.493 109.291 91.493 89.9605C91.493 70.6295 80.3676 54.9586 66.6437 54.9586C52.9198 54.9586 41.7944 70.6295 41.7944 89.9605C41.7944 109.291 52.9198 124.962 66.6437 124.962Z" fill="#9E616A"/>
<path d="M60.2868 123.248C60.1807 122.919 60.0748 122.589 59.9692 122.257C60.0099 122.259 60.0502 122.267 60.0909 122.269L60.2868 123.248Z" fill="#2F2E41"/>
<path d="M41.1034 56.5503C42.3602 55.1381 43.8291 53.8388 45.436 53.9118C47.0428 53.9847 48.6723 56.029 48.3394 58.2444C51.2909 50.8835 55.9887 45.2221 61.6084 42.2539C67.228 39.2858 73.4103 39.2006 79.0701 42.0133C83.0638 43.9979 86.9803 47.9685 87.8977 53.7921C88.1332 55.287 88.1837 56.9262 88.8464 58.1401C89.6819 59.6707 91.2805 60.0169 92.5968 59.4785C92.61 59.4731 92.6231 59.4676 92.6363 59.4621C92.8586 59.3552 93.0987 59.3446 93.3253 59.4319C93.552 59.5192 93.7548 59.7003 93.9076 59.9518C94.0604 60.2032 94.1561 60.5134 94.1824 60.8423C94.2087 61.1713 94.1643 61.5037 94.0549 61.7967L92.9249 64.7652C94.3494 65.2124 95.8295 65.1681 97.2391 64.636C97.4733 64.5494 97.7207 64.5671 97.9475 64.6865C98.1743 64.8059 98.3693 65.0212 98.5057 65.3029C98.6422 65.5846 98.7134 65.9188 98.7097 66.2598C98.7059 66.6007 98.6274 66.9317 98.4848 67.2073C94.7587 74.4131 88.5337 79.0663 82.1811 79.0116C77.6661 78.9728 73.1046 76.781 68.7105 78.2435C67.0106 78.8092 65.4222 79.9039 64.0618 81.4472C62.7014 82.9904 61.6036 84.9431 60.8489 87.1619C60.0941 89.3808 59.7016 91.8095 59.7002 94.2698C59.6987 96.7302 60.0884 99.1598 60.8405 101.38C59.4906 99.3007 56.8811 99.7931 55.5003 101.832C54.1195 103.871 53.762 106.915 53.9012 109.726C54.1139 114.026 55.3099 118.077 56.5707 122.02C46.0001 121.551 36.002 111.107 32.6367 96.98C29.2572 82.7941 32.799 65.8816 41.1034 56.5503Z" fill="#2F2E41"/>
<path opacity="0.2" d="M24.4581 195.073L31.4278 248.487L35.6097 249L24.4581 195.073Z" fill="black"/>
<path opacity="0.2" d="M101.23 191.045L94.2607 248.448L90.0787 249L101.23 191.045Z" fill="black"/>
<path d="M47.048 38.5741C45.7116 39.3601 44.3172 38.4987 43.7324 36.5261C43.1387 34.5232 43.6932 32.4901 45.051 31.6915C46.4089 30.8929 47.7784 31.7564 48.3817 33.7915C48.976 35.7961 48.4275 37.7627 47.048 38.5741ZM44.4881 27.7493L43.4256 28.3743C43.1601 28.5286 42.8633 28.5369 42.5937 28.3976C42.3241 28.2583 42.1014 27.9816 41.9698 27.6222L41.9172 27.4774C40.7739 24.5731 40.643 21.0434 41.5302 16.9917C42.352 13.3572 42.6934 10.8011 42.0069 8.48538C41.2132 5.80797 39.5183 4.96927 37.357 6.18423C36.5187 6.67727 36.252 6.66941 35.5923 7.59118C35.4488 7.79413 35.2778 7.9543 35.0894 8.06213C34.901 8.16996 34.6991 8.22325 34.4958 8.21882C34.2993 8.21556 34.1052 8.15658 33.9252 8.0454C33.7451 7.93421 33.5828 7.7731 33.448 7.57166C33.1882 7.18348 33.0426 6.67087 33.0407 6.13737C33.0388 5.60386 33.1806 5.08921 33.4377 4.69734C34.5465 3.06242 35.8839 1.76898 37.3654 0.898659C42.0091 -1.83266 44.3469 2.19974 45.4166 5.80837C46.463 9.33801 45.8744 12.6129 44.9286 16.8543C44.1361 20.3786 44.1823 22.99 45.0825 25.5866C45.1475 25.7829 45.1837 25.9957 45.1889 26.2122C45.194 26.4287 45.1681 26.6444 45.1125 26.8464C45.057 27.0484 44.9731 27.2325 44.8658 27.3877C44.7585 27.5428 44.63 27.6659 44.4881 27.7493Z" fill="#6C63FF"/>
<path d="M162.403 54.771H139.835C139.763 54.7717 139.692 54.7524 139.626 54.7142C139.559 54.676 139.499 54.6197 139.448 54.5486C139.397 54.4774 139.357 54.3927 139.329 54.2995C139.302 54.2063 139.287 54.1063 139.287 54.0053C139.287 53.9043 139.302 53.8043 139.329 53.711C139.357 53.6178 139.397 53.5332 139.448 53.462C139.499 53.3908 139.559 53.3345 139.626 53.2964C139.692 53.2582 139.763 53.2389 139.835 53.2396H162.403C162.547 53.241 162.684 53.3222 162.785 53.4657C162.887 53.6091 162.943 53.8031 162.943 54.0053C162.943 54.2074 162.887 54.4014 162.785 54.5449C162.684 54.6883 162.547 54.7696 162.403 54.771Z" fill="#6C63FF"/>
<path d="M191.033 55.0262H168.464C168.393 55.0268 168.322 55.0076 168.255 54.9694C168.189 54.9312 168.129 54.8749 168.078 54.8037C168.027 54.7326 167.986 54.6479 167.959 54.5547C167.931 54.4615 167.917 54.3615 167.917 54.2605C167.917 54.1595 167.931 54.0595 167.959 53.9662C167.986 53.873 168.027 53.7884 168.078 53.7172C168.129 53.646 168.189 53.5897 168.255 53.5516C168.322 53.5134 168.393 53.4941 168.464 53.4948H191.033C191.105 53.4941 191.176 53.5134 191.242 53.5516C191.309 53.5897 191.369 53.646 191.42 53.7172C191.471 53.7884 191.511 53.873 191.539 53.9662C191.566 54.0595 191.58 54.1595 191.58 54.2605C191.58 54.3615 191.566 54.4615 191.539 54.5547C191.511 54.6479 191.471 54.7326 191.42 54.8037C191.369 54.8749 191.309 54.9312 191.242 54.9694C191.176 55.0076 191.105 55.0268 191.033 55.0262Z" fill="#6C63FF"/>
<path d="M219.663 55.2814H197.094C196.95 55.28 196.813 55.1988 196.712 55.0553C196.611 54.9119 196.554 54.7179 196.554 54.5157C196.554 54.3135 196.611 54.1196 196.712 53.9761C196.813 53.8327 196.95 53.7514 197.094 53.75H219.663C219.734 53.7493 219.805 53.7686 219.872 53.8068C219.938 53.845 219.999 53.9013 220.049 53.9724C220.1 54.0436 220.141 54.1282 220.168 54.2215C220.196 54.3147 220.21 54.4147 220.21 54.5157C220.21 54.6167 220.196 54.7167 220.168 54.8099C220.141 54.9032 220.1 54.9878 220.049 55.059C219.999 55.1302 219.938 55.1865 219.872 55.2246C219.805 55.2628 219.734 55.2821 219.663 55.2814Z" fill="#6C63FF"/>
<path d="M248.292 55.5366H225.724C225.58 55.5353 225.443 55.454 225.342 55.3105C225.24 55.1671 225.184 54.9731 225.184 54.7709C225.184 54.5688 225.24 54.3748 225.342 54.2313C225.443 54.0879 225.58 54.0066 225.724 54.0052H248.292C248.436 54.0066 248.573 54.0879 248.674 54.2313C248.775 54.3748 248.832 54.5688 248.832 54.7709C248.832 54.9731 248.775 55.1671 248.674 55.3105C248.573 55.454 248.436 55.5353 248.292 55.5366Z" fill="#6C63FF"/>
<path d="M151.069 47.7241C153.386 47.7241 155.264 45.0789 155.264 41.8158C155.264 38.5528 153.386 35.9075 151.069 35.9075C148.753 35.9075 146.875 38.5528 146.875 41.8158C146.875 45.0789 148.753 47.7241 151.069 47.7241Z" fill="#6C63FF"/>
<path d="M179.872 47.7241C182.189 47.7241 184.067 45.0789 184.067 41.8158C184.067 38.5528 182.189 35.9075 179.872 35.9075C177.555 35.9075 175.677 38.5528 175.677 41.8158C175.677 45.0789 177.555 47.7241 179.872 47.7241Z" fill="#6C63FF"/>
<path d="M208.675 47.7241C210.991 47.7241 212.869 45.0789 212.869 41.8158C212.869 38.5528 210.991 35.9075 208.675 35.9075C206.358 35.9075 204.48 38.5528 204.48 41.8158C204.48 45.0789 206.358 47.7241 208.675 47.7241Z" fill="#6C63FF"/>
<path d="M237.477 47.7241C239.794 47.7241 241.672 45.0789 241.672 41.8158C241.672 38.5528 239.794 35.9075 237.477 35.9075C235.161 35.9075 233.283 38.5528 233.283 41.8158C233.283 45.0789 235.161 47.7241 237.477 47.7241Z" fill="#6C63FF"/>
</g>
</g>
<defs>
<clipPath id="clip0_0_1">
<rect width="390" height="844" fill="white" transform="translate(-62 -119)"/>
</clipPath>
<clipPath id="clip1_0_1">
<rect width="266" height="249" fill="white"/>
</clipPath>
</defs>
</svg>
