<svg width="236" height="235" viewBox="0 0 236 235" fill="none" xmlns="http://www.w3.org/2000/svg">
<g clip-path="url(#clip0_19_202)">
<path d="M22.6952 197.967L20.6167 189.829C16.9314 188.278 13.161 186.935 9.32343 185.806L9.06108 189.588L7.99712 185.421C3.23782 184.071 0 183.476 0 183.476C0 183.476 4.37243 199.987 13.5463 212.61L24.2347 214.474L15.9312 215.663C17.0852 217.041 18.3253 218.346 19.6443 219.57C32.9881 231.867 47.8509 237.509 52.8409 232.171C57.8308 226.834 51.0586 212.539 37.7148 200.244C33.5781 196.432 28.3815 193.372 23.1796 190.964L22.6952 197.967Z" fill="#F2F2F2"/>
<path d="M42.4618 189.127L44.9198 181.094C42.5726 177.875 40.0444 174.791 37.3473 171.855L35.1534 174.958L36.4119 170.845C33.0404 167.248 30.5782 165.078 30.5782 165.078C30.5782 165.078 25.7258 181.456 27.0058 196.969L35.1851 204.05L27.4567 200.806C27.7271 202.578 28.1095 204.332 28.6018 206.057C33.6225 223.431 43.4082 235.888 50.4585 233.88C57.5089 231.872 59.1546 216.159 54.1339 198.785C52.5776 193.399 49.7216 188.113 46.5224 183.383L42.4618 189.127Z" fill="#F2F2F2"/>
<path d="M164.68 55.6716H163.383V20.4095C163.383 17.7293 162.851 15.0754 161.818 12.5992C160.785 10.123 159.271 7.87302 157.362 5.97782C155.453 4.08262 153.187 2.57926 150.692 1.55358C148.198 0.527907 145.525 0 142.825 0H67.5728C62.1206 0 56.8916 2.15029 53.0363 5.97782C49.181 9.80535 47.0151 14.9966 47.0151 20.4095V213.863C47.0151 216.544 47.5468 219.198 48.5799 221.674C49.6131 224.15 51.1273 226.4 53.0363 228.295C54.9453 230.19 57.2115 231.694 59.7057 232.719C62.1999 233.745 64.8731 234.273 67.5728 234.273H142.825C148.277 234.273 153.506 232.123 157.362 228.295C161.217 224.468 163.383 219.276 163.383 213.863V80.7719H164.679L164.68 55.6716Z" fill="#E6E6E6"/>
<path d="M143.655 5.30786H133.833C134.284 6.40743 134.457 7.60043 134.335 8.78175C134.213 9.96306 133.8 11.0964 133.132 12.082C132.465 13.0676 131.564 13.8751 130.508 14.4335C129.453 14.9918 128.275 15.2838 127.079 15.2838H83.9675C82.7714 15.2837 81.5937 14.9916 80.5381 14.4333C79.4825 13.8749 78.5814 13.0673 77.9143 12.0818C77.2471 11.0962 76.8343 9.96286 76.7122 8.78159C76.5902 7.60032 76.7626 6.40738 77.2143 5.30786H68.0398C63.9681 5.30786 60.0632 6.91367 57.1841 9.77204C54.305 12.6304 52.6875 16.5072 52.6875 20.5495V213.723C52.6875 217.765 54.305 221.642 57.1841 224.5C60.0632 227.358 63.9681 228.964 68.0398 228.964H143.655C147.726 228.964 151.631 227.358 154.511 224.5C157.39 221.642 159.007 217.765 159.007 213.723V20.5492C159.007 16.5069 157.389 12.6302 154.51 9.77193C151.631 6.91363 147.726 5.30786 143.655 5.30786Z" fill="white"/>
<path d="M96.212 82.2582C96.2117 80.908 96.5698 79.5814 97.25 78.4122C97.9303 77.243 98.9087 76.2722 100.087 75.5977C98.9093 74.9225 97.5734 74.5669 96.2134 74.5668C94.8535 74.5666 93.5175 74.9219 92.3397 75.5969C91.1619 76.2719 90.1838 77.2428 89.5038 78.412C88.8238 79.5812 88.4658 80.9076 88.4658 82.2578C88.4658 83.6079 88.8238 84.9343 89.5038 86.1035C90.1838 87.2727 91.1619 88.2436 92.3397 88.9186C93.5175 89.5936 94.8535 89.9489 96.2134 89.9487C97.5734 89.9486 98.9093 89.593 100.087 88.9178C98.9088 88.2434 97.9304 87.2729 97.2501 86.1038C96.5699 84.9347 96.2118 83.6083 96.212 82.2582Z" fill="#CCCCCC"/>
<path d="M105.951 82.2582C105.95 80.9079 106.308 79.5814 106.989 78.4122C107.669 77.2429 108.648 76.2722 109.826 75.5977C108.648 74.9225 107.312 74.5669 105.952 74.5668C104.592 74.5666 103.256 74.9219 102.078 75.5969C100.901 76.2719 99.9226 77.2428 99.2425 78.412C98.5625 79.5812 98.2045 80.9076 98.2045 82.2578C98.2045 83.6079 98.5625 84.9343 99.2425 86.1035C99.9226 87.2727 100.901 88.2436 102.078 88.9186C103.256 89.5936 104.592 89.9489 105.952 89.9487C107.312 89.9486 108.648 89.593 109.826 88.9178C108.648 88.2434 107.669 87.2729 106.989 86.1038C106.309 84.9347 105.951 83.6083 105.951 82.2582Z" fill="#CCCCCC"/>
<path d="M115.468 89.9488C119.747 89.9488 123.215 86.5055 123.215 82.2579C123.215 78.0103 119.747 74.5669 115.468 74.5669C111.19 74.5669 107.722 78.0103 107.722 82.2579C107.722 86.5055 111.19 89.9488 115.468 89.9488Z" fill="#6C63FF"/>
<path d="M128.415 106.28H83.2651C82.8353 106.279 82.4232 106.11 82.1193 105.808C81.8153 105.506 81.6444 105.097 81.6439 104.67V59.8456C81.6444 59.4188 81.8153 59.0097 82.1193 58.708C82.4232 58.4062 82.8353 58.2365 83.2651 58.236H128.415C128.845 58.2365 129.257 58.4062 129.561 58.708C129.865 59.0097 130.036 59.4188 130.037 59.8456V104.67C130.036 105.097 129.865 105.506 129.561 105.808C129.257 106.11 128.845 106.279 128.415 106.28ZM83.2651 58.8802C83.0072 58.8804 82.76 58.9823 82.5776 59.1633C82.3952 59.3444 82.2927 59.5898 82.2924 59.8459V104.671C82.2927 104.927 82.3952 105.172 82.5776 105.353C82.76 105.534 83.0072 105.636 83.2651 105.636H128.415C128.673 105.636 128.92 105.534 129.103 105.353C129.285 105.172 129.388 104.927 129.388 104.671V59.8459C129.388 59.5898 129.285 59.3444 129.103 59.1633C128.92 58.9823 128.673 58.8804 128.415 58.8802H83.2651Z" fill="#CCCCCC"/>
<path d="M138.497 140.64H69.2499V141.284H138.497V140.64Z" fill="#CCCCCC"/>
<path d="M71.4367 136.62C72.6445 136.62 73.6236 135.648 73.6236 134.449C73.6236 133.25 72.6445 132.278 71.4367 132.278C70.229 132.278 69.2499 133.25 69.2499 134.449C69.2499 135.648 70.229 136.62 71.4367 136.62Z" fill="#6C63FF"/>
<path d="M138.497 162.35H69.2499V162.994H138.497V162.35Z" fill="#CCCCCC"/>
<path d="M71.4367 158.33C72.6445 158.33 73.6236 157.358 73.6236 156.159C73.6236 154.96 72.6445 153.988 71.4367 153.988C70.229 153.988 69.2499 154.96 69.2499 156.159C69.2499 157.358 70.229 158.33 71.4367 158.33Z" fill="#6C63FF"/>
<path d="M137.229 187.072H115.346C114.968 187.071 114.605 186.922 114.338 186.657C114.071 186.391 113.92 186.031 113.92 185.656V178.041C113.92 177.666 114.071 177.306 114.338 177.041C114.605 176.775 114.968 176.626 115.346 176.626H137.229C137.607 176.626 137.97 176.775 138.237 177.041C138.504 177.306 138.655 177.666 138.655 178.041V185.656C138.655 186.031 138.504 186.391 138.237 186.657C137.97 186.922 137.607 187.071 137.229 187.072Z" fill="#6C63FF"/>
<path d="M78.5702 136.62C79.7779 136.62 80.757 135.648 80.757 134.449C80.757 133.25 79.7779 132.278 78.5702 132.278C77.3624 132.278 76.3833 133.25 76.3833 134.449C76.3833 135.648 77.3624 136.62 78.5702 136.62Z" fill="#6C63FF"/>
<path d="M85.7036 136.62C86.9113 136.62 87.8904 135.648 87.8904 134.449C87.8904 133.25 86.9113 132.278 85.7036 132.278C84.4958 132.278 83.5167 133.25 83.5167 134.449C83.5167 135.648 84.4958 136.62 85.7036 136.62Z" fill="#6C63FF"/>
<path d="M78.5702 158.33C79.7779 158.33 80.757 157.358 80.757 156.159C80.757 154.96 79.7779 153.988 78.5702 153.988C77.3624 153.988 76.3833 154.96 76.3833 156.159C76.3833 157.358 77.3624 158.33 78.5702 158.33Z" fill="#6C63FF"/>
<path d="M85.7036 158.33C86.9113 158.33 87.8904 157.358 87.8904 156.159C87.8904 154.96 86.9113 153.988 85.7036 153.988C84.4958 153.988 83.5167 154.96 83.5167 156.159C83.5167 157.358 84.4958 158.33 85.7036 158.33Z" fill="#6C63FF"/>
<path d="M235.119 235H7.62957C7.14258 235 6.74811 234.828 6.74811 234.617C6.74811 234.405 7.14258 234.233 7.62957 234.233H235.119C235.605 234.233 236 234.405 236 234.617C236 234.829 235.605 235 235.119 235Z" fill="#3F3D56"/>
<path d="M178.914 153.965C179.069 154.035 179.219 154.118 179.361 154.212L193.572 148.191L194.079 144.474L199.758 144.44L199.422 152.964L180.665 157.888C180.626 158.018 180.578 158.145 180.523 158.268C180.252 158.843 179.816 159.325 179.27 159.654C178.723 159.983 178.091 160.145 177.453 160.119C176.814 160.093 176.198 159.88 175.681 159.507C175.164 159.134 174.769 158.617 174.547 158.023C174.325 157.428 174.284 156.781 174.431 156.164C174.577 155.546 174.904 154.985 175.371 154.552C175.838 154.118 176.423 153.831 177.053 153.727C177.683 153.622 178.331 153.705 178.914 153.965Z" fill="#FFB8B8"/>
<path d="M201.823 231.208H197.938L196.09 216.333L201.823 216.333L201.823 231.208Z" fill="#FFB8B8"/>
<path d="M195.164 230.106H202.655V234.789H190.447C190.447 233.547 190.944 232.355 191.828 231.477C192.713 230.599 193.913 230.106 195.164 230.106Z" fill="#2F2E41"/>
<path d="M216.93 230.118L213.064 230.496L209.756 215.873L215.461 215.315L216.93 230.118Z" fill="#FFB8B8"/>
<path d="M210.194 229.67L217.649 228.94L218.112 233.601L205.962 234.789C205.902 234.177 205.963 233.559 206.143 232.97C206.323 232.382 206.617 231.834 207.01 231.359C207.403 230.884 207.887 230.49 208.433 230.2C208.979 229.91 209.578 229.73 210.194 229.67Z" fill="#2F2E41"/>
<path d="M202.904 128.697C207.202 128.697 210.686 125.238 210.686 120.971C210.686 116.704 207.202 113.245 202.904 113.245C198.606 113.245 195.122 116.704 195.122 120.971C195.122 125.238 198.606 128.697 202.904 128.697Z" fill="#FFB8B8"/>
<path d="M197.07 228.2C196.736 228.2 196.413 228.084 196.157 227.871C195.901 227.659 195.729 227.363 195.671 227.037C193.661 215.956 187.089 179.725 186.932 178.722C186.928 178.698 186.926 178.675 186.927 178.652V175.95C186.926 175.852 186.957 175.756 187.015 175.676L187.883 174.469C187.925 174.411 187.979 174.363 188.042 174.329C188.104 174.295 188.174 174.275 188.246 174.272C193.195 174.042 209.406 173.367 210.189 174.338C210.975 175.314 210.698 178.272 210.634 178.855L210.637 178.916L217.92 225.155C217.977 225.523 217.885 225.9 217.665 226.202C217.445 226.504 217.113 226.708 216.743 226.77L212.194 227.514C211.855 227.568 211.508 227.499 211.216 227.321C210.924 227.142 210.706 226.866 210.602 226.541C209.195 222.078 204.477 207.064 202.842 201.255C202.832 201.218 202.809 201.186 202.777 201.165C202.745 201.144 202.706 201.136 202.668 201.141C202.63 201.146 202.595 201.165 202.57 201.194C202.545 201.223 202.531 201.26 202.532 201.298C202.613 206.836 202.811 220.966 202.879 225.846L202.886 226.371C202.889 226.727 202.758 227.071 202.518 227.335C202.278 227.599 201.946 227.765 201.59 227.798L197.203 228.194C197.159 228.198 197.114 228.2 197.07 228.2Z" fill="#2F2E41"/>
<path d="M197.965 131.735C196.607 132.537 195.794 134.009 195.328 135.508C194.465 138.283 193.945 141.152 193.781 144.051L193.288 152.733L187.187 175.75C192.475 180.191 195.525 179.182 202.643 175.549C209.761 171.915 210.574 176.76 210.574 176.76L211.997 157.176L214.031 135.776C213.574 135.23 213.058 134.737 212.491 134.306C210.611 132.855 208.424 131.846 206.095 131.356C203.765 130.866 201.354 130.907 199.043 131.476L197.965 131.735Z" fill="#6C63FF"/>
<path d="M195.984 158.613C196.148 158.674 196.307 158.748 196.459 158.834L210.51 151.852L210.744 148.069L216.54 147.673L216.851 156.296L198.073 162.461C197.919 163.114 197.569 163.705 197.069 164.155C196.569 164.606 195.943 164.895 195.274 164.984C194.604 165.072 193.924 164.957 193.322 164.652C192.721 164.347 192.227 163.868 191.907 163.278C191.586 162.687 191.454 162.014 191.529 161.348C191.603 160.682 191.88 160.054 192.322 159.547C192.765 159.041 193.352 158.68 194.006 158.513C194.66 158.347 195.35 158.381 195.984 158.613Z" fill="#FFB8B8"/>
<path d="M213.929 135.874C217.386 137.085 217.995 150.21 217.995 150.21C213.928 147.989 209.047 151.623 209.047 151.623C209.047 151.623 208.031 148.191 206.81 143.749C206.442 142.499 206.398 141.178 206.682 139.907C206.967 138.636 207.57 137.457 208.437 136.48C208.437 136.48 210.472 134.662 213.929 135.874Z" fill="#6C63FF"/>
<path d="M209.882 123.014C208.912 122.244 207.589 123.644 207.589 123.644L206.814 116.713C206.814 116.713 201.966 117.29 198.863 116.521C195.76 115.752 195.275 119.313 195.275 119.313C195.115 117.874 195.083 116.425 195.178 114.981C195.372 113.248 197.893 111.515 202.353 110.36C206.814 109.205 209.14 114.211 209.14 114.211C212.244 115.751 210.851 123.785 209.882 123.014Z" fill="#2F2E41"/>
</g>
<defs>
<clipPath id="clip0_19_202">
<rect width="236" height="235" fill="white"/>
</clipPath>
</defs>
</svg>
