<svg width="263" height="215" viewBox="0 0 263 215" fill="none" xmlns="http://www.w3.org/2000/svg">
<g clip-path="url(#clip0_133_90)">
<path d="M201.492 203.646L215.185 177.997L201.52 206.405L201.549 209.292C200.549 209.301 199.559 209.28 198.579 209.229L199.258 172.129L199.24 171.842L199.265 171.787L199.33 168.281L184.335 140.857L199.312 165.658L199.365 166.399L199.878 138.368L186.927 109.936L199.915 133.444L199.779 75.3716L199.78 75.1783L199.784 75.3684L200.644 121.137L212.448 102.546L200.683 125.08L200.94 150.153L211.802 125.683L200.98 153.839L201.124 167.781L216.92 133.694L201.172 172.644L201.492 203.646Z" fill="#E6E6E6"/>
<path d="M247.573 204.454L261.265 178.805L247.601 207.213L247.629 210.1C246.63 210.109 245.64 210.088 244.66 210.037L245.339 172.937L245.32 172.65L245.345 172.595L245.41 169.089L230.416 141.665L245.393 166.465L245.446 167.206L245.959 139.176L233.007 110.744L245.996 134.252L245.86 76.1795L245.86 75.9862L245.865 76.1763L246.724 121.945L258.528 103.354L246.763 125.888L247.021 150.961L257.883 126.491L247.061 154.647L247.204 168.588L263 134.502L247.252 173.452L247.573 204.454Z" fill="#E6E6E6"/>
<path d="M109.052 0H27.115V139.608H109.052V0Z" fill="#E6E6E6"/>
<path d="M106.164 4.91956H30.0022V134.689H106.164V4.91956Z" fill="white"/>
<path d="M96.1533 27.6807H40.2572C39.8044 27.6799 39.3704 27.4528 39.0504 27.0493C38.7305 26.6457 38.5508 26.0987 38.5508 25.5284C38.5508 24.9581 38.7305 24.411 39.0504 24.0075C39.3704 23.6039 39.8044 23.3768 40.2572 23.3761H96.1533C96.3779 23.3757 96.6003 23.4311 96.8079 23.5391C97.0154 23.6471 97.204 23.8056 97.3629 24.0055C97.5218 24.2054 97.6479 24.4428 97.7339 24.7041C97.8199 24.9654 97.8642 25.2455 97.8642 25.5284C97.8642 25.8113 97.8199 26.0914 97.7339 26.3527C97.6479 26.614 97.5218 26.8514 97.3629 27.0513C97.204 27.2512 97.0154 27.4097 96.8079 27.5177C96.6003 27.6257 96.3779 27.6811 96.1533 27.6807Z" fill="#E6E6E6"/>
<path d="M96.1533 49.8186H40.2572C39.8044 49.8178 39.3704 49.5907 39.0504 49.1872C38.7305 48.7836 38.5508 48.2366 38.5508 47.6663C38.5508 47.0959 38.7305 46.5489 39.0504 46.1454C39.3704 45.7418 39.8044 45.5147 40.2572 45.514H96.1533C96.3779 45.5136 96.6003 45.569 96.8079 45.677C97.0154 45.785 97.204 45.9435 97.3629 46.1434C97.5218 46.3433 97.6479 46.5806 97.7339 46.842C97.8199 47.1033 97.8642 47.3834 97.8642 47.6663C97.8642 47.9492 97.8199 48.2293 97.7339 48.4906C97.6479 48.7519 97.5218 48.9893 97.3629 49.1892C97.204 49.3891 97.0154 49.5475 96.8079 49.6555C96.6003 49.7635 96.3779 49.8189 96.1533 49.8186Z" fill="#E6E6E6"/>
<path d="M96.1533 71.9564H40.2572C39.8044 71.9556 39.3704 71.7285 39.0504 71.325C38.7305 70.9214 38.5508 70.3744 38.5508 69.8041C38.5508 69.2338 38.7305 68.6867 39.0504 68.2832C39.3704 67.8796 39.8044 67.6525 40.2572 67.6518H96.1533C96.3779 67.6514 96.6003 67.7068 96.8079 67.8148C97.0154 67.9228 97.204 68.0813 97.3629 68.2812C97.5218 68.4811 97.6479 68.7185 97.7339 68.9798C97.8199 69.2411 97.8642 69.5212 97.8642 69.8041C97.8642 70.087 97.8199 70.3671 97.7339 70.6284C97.6479 70.8897 97.5218 71.1271 97.3629 71.327C97.204 71.5269 97.0154 71.6854 96.8079 71.7934C96.6003 71.9014 96.3779 71.9568 96.1533 71.9564Z" fill="#E6E6E6"/>
<path d="M96.1533 94.0943H40.2572C39.8044 94.0935 39.3704 93.8664 39.0504 93.4629C38.7305 93.0593 38.5508 92.5123 38.5508 91.942C38.5508 91.3716 38.7305 90.8246 39.0504 90.4211C39.3704 90.0175 39.8044 89.7904 40.2572 89.7897H96.1533C96.3779 89.7893 96.6003 89.8447 96.8079 89.9527C97.0154 90.0607 97.204 90.2192 97.3629 90.4191C97.5218 90.619 97.6479 90.8564 97.7339 91.1177C97.8199 91.379 97.8642 91.6591 97.8642 91.942C97.8642 92.2248 97.8199 92.505 97.7339 92.7663C97.6479 93.0276 97.5218 93.265 97.3629 93.4649C97.204 93.6648 97.0154 93.8232 96.8079 93.9312C96.6003 94.0392 96.3779 94.0946 96.1533 94.0943Z" fill="#E6E6E6"/>
<path d="M96.1533 116.232H40.2572C39.8044 116.231 39.3704 116.004 39.0504 115.601C38.7305 115.197 38.5508 114.65 38.5508 114.08C38.5508 113.51 38.7305 112.963 39.0504 112.559C39.3704 112.155 39.8044 111.928 40.2572 111.928H96.1533C96.3779 111.927 96.6003 111.983 96.8079 112.091C97.0154 112.199 97.204 112.357 97.3629 112.557C97.5218 112.757 97.6479 112.994 97.7339 113.256C97.8199 113.517 97.8642 113.797 97.8642 114.08C97.8642 114.363 97.8199 114.643 97.7339 114.904C97.6479 115.165 97.5218 115.403 97.3629 115.603C97.204 115.803 97.0154 115.961 96.8079 116.069C96.6003 116.177 96.3779 116.233 96.1533 116.232Z" fill="#E6E6E6"/>
<path d="M86.3898 27.6807H40.0131C39.7885 27.6811 39.5661 27.6257 39.3586 27.5177C39.151 27.4097 38.9624 27.2512 38.8035 27.0513C38.6446 26.8514 38.5185 26.614 38.4325 26.3527C38.3465 26.0914 38.3022 25.8113 38.3022 25.5284C38.3022 25.2455 38.3465 24.9654 38.4325 24.7041C38.5185 24.4428 38.6446 24.2054 38.8035 24.0055C38.9624 23.8056 39.151 23.6471 39.3586 23.5391C39.5661 23.4311 39.7885 23.3757 40.0131 23.3761H86.3898C86.8426 23.3768 87.2766 23.6039 87.5966 24.0075C87.9165 24.411 88.0962 24.9581 88.0962 25.5284C88.0962 26.0987 87.9165 26.6457 87.5966 27.0493C87.2766 27.4528 86.8426 27.6799 86.3898 27.6807Z" fill="#6C63FF"/>
<path d="M71.9886 49.8186H40.0131C39.5599 49.8186 39.1253 49.5918 38.8049 49.1882C38.4845 48.7845 38.3044 48.2371 38.3044 47.6663C38.3044 47.0954 38.4845 46.548 38.8049 46.1444C39.1253 45.7407 39.5599 45.514 40.0131 45.514H71.9886C72.2131 45.5136 72.4356 45.569 72.6431 45.677C72.8507 45.785 73.0393 45.9435 73.1982 46.1434C73.3571 46.3433 73.4832 46.5806 73.5692 46.842C73.6552 47.1033 73.6994 47.3834 73.6994 47.6663C73.6994 47.9492 73.6552 48.2293 73.5692 48.4906C73.4832 48.7519 73.3571 48.9893 73.1982 49.1892C73.0393 49.3891 72.8507 49.5475 72.6431 49.6555C72.4356 49.7635 72.2131 49.8189 71.9886 49.8186Z" fill="#6C63FF"/>
<path d="M54.4143 71.9564H40.0131C39.7885 71.9568 39.5661 71.9014 39.3586 71.7934C39.151 71.6854 38.9624 71.5269 38.8035 71.327C38.6446 71.1271 38.5185 70.8897 38.4325 70.6284C38.3465 70.3671 38.3022 70.087 38.3022 69.8041C38.3022 69.5212 38.3465 69.2411 38.4325 68.9798C38.5185 68.7185 38.6446 68.4811 38.8035 68.2812C38.9624 68.0813 39.151 67.9228 39.3586 67.8148C39.5661 67.7068 39.7885 67.6514 40.0131 67.6518H54.4143C54.8671 67.6525 55.3011 67.8796 55.621 68.2832C55.941 68.6867 56.1207 69.2338 56.1207 69.8041C56.1207 70.3744 55.941 70.9214 55.621 71.325C55.3011 71.7285 54.8671 71.9556 54.4143 71.9564Z" fill="#6C63FF"/>
<path d="M90.7834 94.0943H40.0131C39.5599 94.0943 39.1253 93.8675 38.8049 93.4639C38.4845 93.0602 38.3044 92.5128 38.3044 91.942C38.3044 91.3711 38.4845 90.8237 38.8049 90.4201C39.1253 90.0164 39.5599 89.7897 40.0131 89.7897H90.7834C91.2365 89.7897 91.6711 90.0164 91.9915 90.4201C92.312 90.8237 92.492 91.3711 92.492 91.942C92.492 92.5128 92.312 93.0602 91.9915 93.4639C91.6711 93.8675 91.2365 94.0943 90.7834 94.0943Z" fill="#6C63FF"/>
<path d="M79.5554 116.232H40.0131C39.7885 116.233 39.5661 116.177 39.3586 116.069C39.151 115.961 38.9624 115.803 38.8035 115.603C38.6446 115.403 38.5185 115.165 38.4325 114.904C38.3465 114.643 38.3022 114.363 38.3022 114.08C38.3022 113.797 38.3465 113.517 38.4325 113.256C38.5185 112.994 38.6446 112.757 38.8035 112.557C38.9624 112.357 39.151 112.199 39.3586 112.091C39.5661 111.983 39.7885 111.927 40.0131 111.928H79.5554C79.7799 111.927 80.0024 111.983 80.2099 112.091C80.4175 112.199 80.6061 112.357 80.765 112.557C80.9239 112.757 81.05 112.994 81.136 113.256C81.222 113.517 81.2662 113.797 81.2662 114.08C81.2662 114.363 81.222 114.643 81.136 114.904C81.05 115.165 80.9239 115.403 80.765 115.603C80.6061 115.803 80.4175 115.961 80.2099 116.069C80.0024 116.177 79.7799 116.233 79.5554 116.232Z" fill="#6C63FF"/>
<path d="M261.718 209.294H0V210.036H261.718V209.294Z" fill="#3F3D56"/>
<path d="M149.129 100.577C149.129 100.577 147.276 83.4643 144.189 88.1314C141.101 92.7985 144.189 99.7991 144.189 99.7991L146.659 103.688L149.129 101.355V100.577Z" fill="#9F616A"/>
<path d="M156.539 106.022C156.539 106.022 150.364 97.4656 149.129 99.0213C147.894 100.577 144.189 101.355 144.806 104.466C145.424 107.578 158.391 117.69 158.391 117.69L156.539 106.022Z" fill="#6C63FF"/>
<path opacity="0.1" d="M156.539 106.022C156.539 106.022 150.364 97.4656 149.129 99.0213C147.894 100.577 144.189 101.355 144.806 104.466C145.424 107.578 158.391 117.69 158.391 117.69L156.539 106.022Z" fill="black"/>
<path d="M191.736 105.244V111.467C191.736 111.467 192.354 125.468 188.649 124.69C184.944 123.912 186.796 112.245 186.796 112.245L187.414 105.244L191.736 105.244Z" fill="#9F616A"/>
<path d="M189.884 150.359C189.884 150.359 195.441 161.249 197.294 162.027C199.146 162.805 209.026 169.805 210.261 176.806L218.906 190.807L214.584 197.808C214.584 197.808 194.824 171.361 189.266 169.028C183.709 166.694 178.151 155.026 178.151 155.026L189.884 150.359Z" fill="#9F616A"/>
<path d="M146.041 132.469C146.041 132.469 134.309 134.802 136.161 144.136C138.014 153.471 155.921 172.917 155.921 172.917L156.539 177.584L163.331 179.14L166.419 175.25L165.801 172.917C165.801 172.917 158.391 164.361 157.774 161.249C157.156 158.138 150.364 145.692 147.276 144.914L151.599 141.803L146.041 132.469Z" fill="#9F616A"/>
<path d="M217.054 190.807C217.054 190.807 214.584 186.14 218.289 186.918C221.994 187.696 224.464 188.474 224.464 191.585C224.464 194.697 221.376 216.476 217.671 214.921C213.966 213.365 217.054 206.364 217.054 206.364C217.054 206.364 215.201 200.142 213.966 199.364C212.731 198.586 212.731 194.697 213.966 194.697C215.201 194.697 217.671 192.363 217.054 190.807Z" fill="#2F2E41"/>
<path d="M164.566 173.695C164.566 173.695 164.566 169.805 167.036 173.695C169.506 177.584 170.741 180.695 168.271 183.029C165.801 185.362 157.156 190.807 157.156 190.807C157.156 190.807 147.894 193.141 149.129 187.696C149.129 187.696 155.304 183.807 155.304 180.695C155.304 177.584 155.304 172.139 157.156 173.695C159.009 175.25 164.566 176.028 164.566 173.695Z" fill="#2F2E41"/>
<path d="M176.299 115.356C176.299 115.356 184.944 116.912 184.326 132.469C184.326 132.469 195.441 146.47 192.354 151.137C189.266 155.804 182.474 164.36 180.004 162.027C177.534 159.693 170.124 141.803 170.124 141.803C170.124 141.803 152.834 149.581 149.746 145.692C146.659 141.803 143.571 132.469 143.571 132.469L159.009 122.357L176.299 115.356Z" fill="#2F2E41"/>
<path d="M152.216 71.0188C156.309 71.0188 159.626 66.8397 159.626 61.6846C159.626 56.5295 156.309 52.3504 152.216 52.3504C148.124 52.3504 144.806 56.5295 144.806 61.6846C144.806 66.8397 148.124 71.0188 152.216 71.0188Z" fill="#9F616A"/>
<path d="M157.774 62.4624C157.774 62.4624 162.096 71.0187 163.331 71.7966C164.566 72.5744 154.686 80.3529 154.686 80.3529C154.686 80.3529 154.686 70.2409 151.599 67.9073L157.774 62.4624Z" fill="#9F616A"/>
<path d="M158.391 71.0187C158.391 71.0187 168.271 67.1295 170.124 73.3523C171.976 79.5751 176.299 91.2428 175.681 99.0213C175.064 106.8 173.829 105.244 175.681 107.578C177.534 109.911 178.769 108.355 178.151 111.467C177.534 114.578 176.916 114.578 177.534 116.134C178.151 117.69 170.124 123.135 163.331 123.912L156.539 124.69C156.539 124.69 156.539 110.689 155.304 107.578C154.069 104.466 151.599 98.2434 151.599 95.9099V89.7355C151.599 85.6259 152.45 81.5875 154.069 78.0194C154.069 78.0194 157.774 71.0187 158.391 71.0187Z" fill="#6C63FF"/>
<path d="M165.801 74.1301C165.801 74.1301 188.649 76.4637 191.119 84.2421C193.589 92.0206 194.824 107.578 192.354 107.578C189.884 107.578 186.796 109.133 186.179 107.578C185.561 106.022 183.091 90.4649 182.474 90.4649C181.856 90.4649 163.331 88.1314 163.331 88.1314C163.331 88.1314 155.304 75.6858 165.801 74.1301Z" fill="#6C63FF"/>
<path d="M151.918 59.3705C151.918 59.3705 149.952 55.0659 147.494 58.8049C145.036 62.5438 141.037 55.6728 141.651 54.2067C142.265 52.7406 144.433 54.2726 148.148 52.7429C151.862 51.2132 159.018 48.0968 160.217 58.2625C161.415 68.4282 158.561 67.3625 158.561 67.3625C158.561 67.3625 157.253 58.3546 156.07 60.9421L154.888 63.5295L153.862 63.8475L151.918 59.3705Z" fill="#2F2E41"/>
</g>
<defs>
<clipPath id="clip0_133_90">
<rect width="263" height="215" fill="white"/>
</clipPath>
</defs>
</svg>
